<?xml version="1.0" encoding="utf-8"?>
<!-- Generator: Adobe Illustrator 20.0.0, SVG Export Plug-In . SVG Version: 6.00 Build 0)  -->
<svg version="1.1" id="Layer_1" xmlns="http://www.w3.org/2000/svg" xmlns:xlink="http://www.w3.org/1999/xlink" x="0px" y="0px"
	 viewBox="0 0 383 383" style="enable-background:new 0 0 383 383;" xml:space="preserve">
<style type="text/css">

</style>
<title>tg-logo-one</title>
<path class="square" d="M325.9,310.2H100c-6.6,0-12-5.4-12-12V72.3c0-6.6,5.4-12,12-12h225.9c6.6,0,12,5.4,12,12v225.9
	C337.9,304.8,332.6,310.2,325.9,310.2z"/>
<path class="triangle" d="M218.2,17l159.7,159.7c4.7,4.7,4.7,12.3,0,17L218.2,353.5c-4.7,4.7-12.3,4.7-17,0L41.5,193.7
	c-4.7-4.7-4.7-12.3,0-17L201.2,17C205.9,12.3,213.5,12.3,218.2,17z"/>
<circle class="outerCircle" cx="209.7" cy="185.3" r="83.1"/>
<circle class="innerCircle" cx="209.7" cy="185.3" r="62.1"/>
<text transform="matrix(1 0 0 1 177.02 197.5)" class="st4 st5">T.G.</text>
</svg>
